<svg width="68" height="68" viewBox="0 0 68 68" fill="none" xmlns="http://www.w3.org/2000/svg">
<path d="M20.1875 40.375C18.2962 40.375 16.4474 40.9358 14.8748 41.9866C13.3023 43.0373 12.0766 44.5308 11.3529 46.2781C10.6291 48.0254 10.4397 49.9481 10.8087 51.8031C11.1777 53.658 12.0884 55.3619 13.4258 56.6992C14.7631 58.0365 16.467 58.9473 18.3219 59.3163C20.1769 59.6852 22.0996 59.4959 23.8469 58.7721C25.5942 58.0483 27.0876 56.8227 28.1384 55.2501C29.1891 53.6776 29.75 51.8288 29.75 49.9375C29.75 47.4014 28.7425 44.9691 26.9492 43.1758C25.1559 41.3825 22.7236 40.375 20.1875 40.375ZM20.1875 55.25C19.1367 55.25 18.1096 54.9384 17.236 54.3547C16.3624 53.7709 15.6814 52.9412 15.2794 51.9705C14.8773 50.9998 14.7721 49.9316 14.977 48.9011C15.182 47.8706 15.688 46.924 16.431 46.181C17.1739 45.438 18.1205 44.9321 19.151 44.7271C20.1816 44.5221 21.2497 44.6273 22.2205 45.0294C23.1912 45.4315 24.0209 46.1124 24.6046 46.986C25.1884 47.8597 25.5 48.8868 25.5 49.9375C25.5 50.6351 25.3625 51.326 25.0956 51.9705C24.8286 52.615 24.4373 53.2007 23.944 53.694C23.4507 54.1873 22.865 54.5786 22.2205 54.8456C21.5759 55.1126 20.8851 55.25 20.1875 55.25ZM11.2465 28.2466L15.0582 24.4375L11.2465 20.6284C10.8478 20.2297 10.6238 19.6889 10.6238 19.125C10.6238 18.5611 10.8478 18.0203 11.2465 17.6216C11.6453 17.2228 12.1861 16.9988 12.75 16.9988C13.3139 16.9988 13.8547 17.2228 14.2534 17.6216L18.0625 21.4333L21.8715 17.6216C22.2703 17.2228 22.8111 16.9988 23.375 16.9988C23.9389 16.9988 24.4797 17.2228 24.8784 17.6216C25.2771 18.0203 25.5011 18.5611 25.5011 19.125C25.5011 19.6889 25.2771 20.2297 24.8784 20.6284L21.0667 24.4375L24.8784 28.2466C25.2771 28.6453 25.5011 29.1861 25.5011 29.75C25.5011 30.3139 25.2771 30.8547 24.8784 31.2534C24.4797 31.6522 23.9389 31.8762 23.375 31.8762C22.8111 31.8762 22.2703 31.6522 21.8715 31.2534L18.0625 27.4417L14.2534 31.2534C13.8547 31.6522 13.3139 31.8762 12.75 31.8762C12.1861 31.8762 11.6453 31.6522 11.2465 31.2534C10.8478 30.8547 10.6238 30.3139 10.6238 29.75C10.6238 29.1861 10.8478 28.6453 11.2465 28.2466ZM61.0034 53.7466C61.2008 53.944 61.3574 54.1784 61.4643 54.4363C61.5711 54.6943 61.6261 54.9708 61.6261 55.25C61.6261 55.5292 61.5711 55.8057 61.4643 56.0637C61.3574 56.3216 61.2008 56.556 61.0034 56.7534C60.806 56.9509 60.5716 57.1075 60.3136 57.2143C60.0557 57.3212 59.7792 57.3762 59.5 57.3762C59.2207 57.3762 58.9443 57.3212 58.6863 57.2143C58.4283 57.1075 58.194 56.9509 57.9965 56.7534L54.1875 52.9417L50.3784 56.7534C49.9797 57.1522 49.4389 57.3762 48.875 57.3762C48.3111 57.3762 47.7703 57.1522 47.3715 56.7534C46.9728 56.3547 46.7488 55.8139 46.7488 55.25C46.7488 54.6861 46.9728 54.1453 47.3715 53.7466L51.1832 49.9375L47.3715 46.1284C46.9728 45.7297 46.7488 45.1889 46.7488 44.625C46.7488 44.0611 46.9728 43.5203 47.3715 43.1216C47.7703 42.7228 48.3111 42.4988 48.875 42.4988C49.4389 42.4988 49.9797 42.7228 50.3784 43.1216L54.1875 46.9333L57.9965 43.1216C58.3953 42.7228 58.9361 42.4988 59.5 42.4988C60.0639 42.4988 60.6047 42.7228 61.0034 43.1216C61.4021 43.5203 61.6261 44.0611 61.6261 44.625C61.6261 45.1889 61.4021 45.7297 61.0034 46.1284L57.1917 49.9375L61.0034 53.7466ZM48.9998 29.9705C47.3582 35.9019 42.2742 41.0284 36.6403 42.4362C36.4718 42.4785 36.2987 42.4999 36.125 42.5C35.6068 42.499 35.1068 42.3088 34.7191 41.965C34.3314 41.6212 34.0826 41.1476 34.0196 40.6333C33.9567 40.119 34.0838 39.5993 34.3771 39.1722C34.6704 38.745 35.1097 38.4397 35.6123 38.3138C39.764 37.2752 43.674 33.2908 44.9092 28.8363C45.7565 25.7816 45.7645 21.1331 41.0018 16.3784L40.375 15.7542V21.25C40.375 21.8136 40.1511 22.3541 39.7526 22.7526C39.354 23.1511 38.8135 23.375 38.25 23.375C37.6864 23.375 37.1459 23.1511 36.7474 22.7526C36.3488 22.3541 36.125 21.8136 36.125 21.25V10.625C36.125 10.0614 36.3488 9.52091 36.7474 9.1224C37.1459 8.72388 37.6864 8.5 38.25 8.5H48.875C49.4385 8.5 49.979 8.72388 50.3776 9.1224C50.7761 9.52091 51 10.0614 51 10.625C51 11.1886 50.7761 11.7291 50.3776 12.1276C49.979 12.5261 49.4385 12.75 48.875 12.75H43.3792L44.0034 13.3716C48.8484 18.2192 50.6228 24.1134 48.9998 29.9705Z" fill="#5A5A5A"/>
</svg>
