<svg width="68" height="68" viewBox="0 0 68 68" fill="none" xmlns="http://www.w3.org/2000/svg">
<path d="M17 7.79163C17.0004 7.39102 16.8875 6.99847 16.6744 6.65924C16.4613 6.32001 16.1567 6.04792 15.7956 5.87436C15.4346 5.70079 15.0318 5.63282 14.6338 5.67828C14.2358 5.72374 13.8587 5.88078 13.5461 6.13129C9.83447 9.10346 7.8143 11.7073 6.7518 13.974C5.98672 15.5806 5.61476 17.3462 5.66663 19.125C5.66663 21.8053 7.01813 24.1683 9.07797 25.5708C8.51171 26.049 8.02743 26.6165 7.6443 27.251C6.29563 29.4326 5.66663 32.7675 5.66663 37.5558C5.66663 42.4065 6.3183 48.2318 7.3808 52.8841C7.9078 55.1961 8.5623 57.3296 9.34147 58.9305C9.72963 59.7266 10.2028 60.503 10.7865 61.1121C11.3701 61.71 12.2683 62.3475 13.4583 62.3475C14.6483 62.3475 15.5465 61.71 16.1273 61.1121C16.7187 60.4639 17.2061 59.7279 17.5723 58.9305C18.3543 57.3268 19.0088 55.1961 19.5358 52.8813C20.642 47.8459 21.2165 42.7083 21.25 37.553C21.25 32.7646 20.621 29.4326 19.2723 27.251C18.8892 26.6165 18.4049 26.049 17.8386 25.5708C18.8899 24.8562 19.7504 23.8952 20.345 22.7716C20.9396 21.6481 21.2503 20.3961 21.25 19.125C21.25 16.4985 20.0146 14.6653 19.074 13.2656L18.9918 13.1438C17.8868 11.4976 17 10.1433 17 7.79163ZM9.91663 19.125C9.91663 18.2806 9.91663 17.238 10.6023 15.7788C11.0783 14.756 11.9311 13.4583 13.4696 11.8943C14.0165 13.3591 14.7815 14.501 15.4303 15.4643L15.4643 15.5153C16.4758 17.0198 17 17.8811 17 19.125C17 20.0643 16.6268 20.9651 15.9626 21.6293C15.2984 22.2935 14.3976 22.6666 13.4583 22.6666C12.519 22.6666 11.6182 22.2935 10.954 21.6293C10.2898 20.9651 9.91663 20.0643 9.91663 19.125ZM9.91663 37.5558C9.91663 32.9573 10.557 30.6226 11.2596 29.4836C11.4734 29.1016 11.7932 28.7896 12.1805 28.5855C12.5822 28.4082 13.0197 28.3267 13.4583 28.3475C14.025 28.3475 14.4301 28.4353 14.7361 28.5855C15.0195 28.7215 15.3368 28.968 15.657 29.4836C16.3596 30.6226 17 32.9573 17 37.5558C17 42.092 16.3823 47.6 15.3935 51.9378C14.8948 54.1195 14.3281 55.8903 13.753 57.069C13.6616 57.2567 13.5633 57.441 13.4583 57.6215C13.3533 57.441 13.255 57.2567 13.1636 57.069C12.5885 55.8903 12.0218 54.1166 11.5231 51.9378C10.4901 47.2125 9.95166 42.3926 9.91663 37.5558ZM24.038 39.8848C25.4016 40.4842 26.8511 40.8647 28.3333 41.0125V34.7083C28.3333 33.499 28.5715 32.3016 29.0342 31.1844C29.497 30.0672 30.1753 29.0521 31.0304 28.197C31.8854 27.3419 32.9006 26.6637 34.0178 26.2009C35.135 25.7381 36.3324 25.5 37.5416 25.5H43.8458C43.6131 23.1808 42.8118 20.9549 41.5129 19.0196C40.214 17.0842 38.4577 15.4993 36.3996 14.4052C34.3415 13.3112 32.0453 12.7418 29.7145 12.7477C27.3837 12.7535 25.0904 13.3343 23.0378 14.4386C22.5968 13.5084 22.0774 12.6174 21.4851 11.7753L21.3435 11.5656L20.8363 10.795C23.5355 9.302 26.5664 8.51089 29.6508 8.49425C32.7353 8.4776 35.7746 9.23594 38.4897 10.6997C41.2048 12.1634 43.5088 14.2857 45.1902 16.8716C46.8716 19.4576 47.8765 22.4245 48.1128 25.5H53.125C54.3342 25.5 55.5316 25.7381 56.6488 26.2009C57.766 26.6637 58.7812 27.3419 59.6362 28.197C60.4913 29.0521 61.1696 30.0672 61.6324 31.1844C62.0951 32.3016 62.3333 33.499 62.3333 34.7083V50.2916C62.3333 51.5009 62.0951 52.6983 61.6324 53.8155C61.1696 54.9327 60.4913 55.9478 59.6362 56.8029C58.7812 57.658 57.766 58.3363 56.6488 58.799C55.5316 59.2618 54.3342 59.5 53.125 59.5H37.5416C35.0994 59.5 32.7573 58.5298 31.0304 56.8029C29.3035 55.076 28.3333 52.7338 28.3333 50.2916V45.2795C26.7682 45.1601 25.2247 44.8411 23.7405 44.3303C23.8821 42.8286 23.9841 41.3326 24.038 39.8848ZM53.125 29.75H47.9513C47.3489 33.6096 45.5357 37.178 42.7735 39.9402C40.0113 42.7024 36.4429 44.5155 32.5833 45.118V50.2916C32.5833 53.0286 34.8046 55.25 37.5416 55.25H53.125C54.44 55.25 55.7012 54.7276 56.631 53.7977C57.5609 52.8678 58.0833 51.6067 58.0833 50.2916V34.7083C58.0833 33.3933 57.5609 32.1321 56.631 31.2022C55.7012 30.2724 54.44 29.75 53.125 29.75ZM32.5833 40.8C35.3043 40.2413 37.8016 38.8966 39.7657 36.9324C41.7299 34.9682 43.0746 32.471 43.6333 29.75H37.5416C36.2266 29.75 34.9654 30.2724 34.0356 31.2022C33.1057 32.1321 32.5833 33.3933 32.5833 34.7083V40.8Z" fill="#5A5A5A"/>
</svg>
