<svg width="106" height="106" viewBox="0 0 106 106" fill="none" xmlns="http://www.w3.org/2000/svg">
<path fill-rule="evenodd" clip-rule="evenodd" d="M79.5 26.5V79.5H26.5V26.5H79.5ZM48.8076 39.75H43.6459L33.8463 66.25H38.5031L40.3531 61.0695H52.0839L53.8944 66.25H58.8314L48.8076 39.75ZM67.0976 39.75H62.4597V66.25H67.0976V39.75ZM46.1874 44.196L50.8073 57.4166H41.6412L46.1874 44.196ZM83.917 66.25H92.75V75.0834H83.9166L83.917 66.25ZM30.917 83.9166H39.75V92.75H30.9166L30.917 83.9166ZM48.5836 83.9166H57.4168V92.75H48.5836V83.9166ZM30.9166 13.25H39.75V22.0834H30.9166V13.25ZM66.25 83.9166H75.0834V92.75H66.25V83.9166ZM48.5834 13.25H57.4166V22.0834H48.5834V13.25ZM66.25 13.25H75.0834V22.0834H66.25V13.25ZM83.9166 48.5834H92.75V57.4166H83.9166V48.5834ZM13.25 66.25H22.0834V75.0834H13.25V66.25ZM83.9166 30.9166H92.75V39.75H83.9166V30.9166ZM13.25 48.5834H22.0834V57.4166H13.25V48.5834ZM13.25 30.9166H22.0834V39.75H13.25V30.9166Z" fill="#5A5A5A"/>
</svg>
