<svg width="125" height="23" viewBox="0 0 125 23" fill="none" xmlns="http://www.w3.org/2000/svg">
<g clip-path="url(#clip0_116_3068)">
<path d="M51.9872 22.8125V16.7351H48.8487V6.04198H51.9872V-0.0354004H43.2964V6.04198H46.4348V16.7351H40.0059L34.526 -0.0354004H28.627L21.1282 22.8125H27.5699L33.5457 4.6016L37.5281 16.7351H33.5457V22.8125H51.9872Z" fill="white"/>
<path d="M22.2536 6.04198V-0.0354004H6.55126C4.27235 -0.0354004 2.42536 1.8058 2.42536 4.07756V8.36756C2.42536 10.7002 4.32208 12.591 6.66208 12.591H15.3501C16.498 12.591 17.4286 13.5187 17.4286 14.6631C17.4286 14.7594 17.4215 14.8543 17.4087 14.9477C17.2695 15.9576 16.4014 16.7351 15.3501 16.7351H0.0114746V22.8125H15.7152C17.9941 22.8125 19.8411 20.9713 19.8411 18.6995V14.4095C19.8411 12.0769 17.9444 10.1861 15.6044 10.1861H6.91639C5.76842 10.1861 4.83781 9.25842 4.83781 8.11404C4.83781 8.01773 4.8435 7.92284 4.85771 7.82936C4.99694 6.81954 5.86503 6.04198 6.91639 6.04198H22.2536Z" fill="white"/>
</g>
<path d="M64.28 15V9.2H62.24V8H67.64V9.2H65.6V15H64.28ZM68.5389 15V8H73.0389V9.2H69.8589V10.87H72.7589V12.07H69.8589V13.8H73.0989V15H68.5389ZM76.736 15.14C75.8693 15.14 75.1827 14.9 74.676 14.42C74.1693 13.9333 73.916 13.24 73.916 12.34V10.66C73.916 9.76 74.1693 9.07 74.676 8.59C75.1827 8.10333 75.8693 7.86 76.736 7.86C77.596 7.86 78.2593 8.09667 78.726 8.57C79.1993 9.03667 79.436 9.68 79.436 10.5V10.56H78.136V10.46C78.136 10.0467 78.0193 9.70667 77.786 9.44C77.5593 9.17333 77.2093 9.04 76.736 9.04C76.2693 9.04 75.9027 9.18333 75.636 9.47C75.3693 9.75667 75.236 10.1467 75.236 10.64V12.36C75.236 12.8467 75.3693 13.2367 75.636 13.53C75.9027 13.8167 76.2693 13.96 76.736 13.96C77.2093 13.96 77.5593 13.8267 77.786 13.56C78.0193 13.2867 78.136 12.9467 78.136 12.54V12.36H79.436V12.5C79.436 13.32 79.1993 13.9667 78.726 14.44C78.2593 14.9067 77.596 15.14 76.736 15.14ZM80.5116 15V8H81.8316V10.89H84.4316V8H85.7516V15H84.4316V12.09H81.8316V15H80.5116ZM87.0741 15V8H89.5841L90.9741 14.1H91.1541V8H92.4541V15H89.9441L88.5541 8.9H88.3741V15H87.0741ZM96.4933 15.14C95.6133 15.14 94.9133 14.9 94.3933 14.42C93.8733 13.9333 93.6133 13.24 93.6133 12.34V10.66C93.6133 9.76 93.8733 9.07 94.3933 8.59C94.9133 8.10333 95.6133 7.86 96.4933 7.86C97.3733 7.86 98.0733 8.10333 98.5933 8.59C99.1133 9.07 99.3733 9.76 99.3733 10.66V12.34C99.3733 13.24 99.1133 13.9333 98.5933 14.42C98.0733 14.9 97.3733 15.14 96.4933 15.14ZM96.4933 13.96C96.9866 13.96 97.3699 13.8167 97.6433 13.53C97.9166 13.2433 98.0533 12.86 98.0533 12.38V10.62C98.0533 10.14 97.9166 9.75667 97.6433 9.47C97.3699 9.18333 96.9866 9.04 96.4933 9.04C96.0066 9.04 95.6233 9.18333 95.3433 9.47C95.0699 9.75667 94.9333 10.14 94.9333 10.62V12.38C94.9333 12.86 95.0699 13.2433 95.3433 13.53C95.6233 13.8167 96.0066 13.96 96.4933 13.96ZM100.531 15V8H101.851V13.8H105.051V15H100.531ZM108.437 15.14C107.557 15.14 106.857 14.9 106.337 14.42C105.817 13.9333 105.557 13.24 105.557 12.34V10.66C105.557 9.76 105.817 9.07 106.337 8.59C106.857 8.10333 107.557 7.86 108.437 7.86C109.317 7.86 110.017 8.10333 110.537 8.59C111.057 9.07 111.317 9.76 111.317 10.66V12.34C111.317 13.24 111.057 13.9333 110.537 14.42C110.017 14.9 109.317 15.14 108.437 15.14ZM108.437 13.96C108.93 13.96 109.313 13.8167 109.587 13.53C109.86 13.2433 109.997 12.86 109.997 12.38V10.62C109.997 10.14 109.86 9.75667 109.587 9.47C109.313 9.18333 108.93 9.04 108.437 9.04C107.95 9.04 107.567 9.18333 107.287 9.47C107.013 9.75667 106.877 10.14 106.877 10.62V12.38C106.877 12.86 107.013 13.2433 107.287 13.53C107.567 13.8167 107.95 13.96 108.437 13.96ZM114.894 15.14C114.414 15.14 113.978 15.0333 113.584 14.82C113.198 14.6 112.888 14.2833 112.654 13.87C112.428 13.45 112.314 12.94 112.314 12.34V10.66C112.314 9.76 112.568 9.07 113.074 8.59C113.581 8.10333 114.268 7.86 115.134 7.86C115.994 7.86 116.658 8.09 117.124 8.55C117.598 9.00333 117.834 9.62 117.834 10.4V10.44H116.534V10.36C116.534 10.1133 116.481 9.89 116.374 9.69C116.274 9.49 116.121 9.33333 115.914 9.22C115.708 9.1 115.448 9.04 115.134 9.04C114.668 9.04 114.301 9.18333 114.034 9.47C113.768 9.75667 113.634 10.1467 113.634 10.64V12.36C113.634 12.8467 113.768 13.24 114.034 13.54C114.301 13.8333 114.674 13.98 115.154 13.98C115.634 13.98 115.984 13.8533 116.204 13.6C116.424 13.3467 116.534 13.0267 116.534 12.64V12.54H114.874V11.42H117.834V15H116.614V14.33H116.434C116.388 14.4433 116.311 14.5633 116.204 14.69C116.104 14.8167 115.951 14.9233 115.744 15.01C115.538 15.0967 115.254 15.14 114.894 15.14ZM120.554 15V12.59L118.174 8H119.644L121.124 11H121.304L122.784 8H124.254L121.874 12.59V15H120.554Z" fill="white"/>
<defs>
<clipPath id="clip0_116_3068">
<rect width="52" height="23" fill="white"/>
</clipPath>
</defs>
</svg>
