<svg width="106" height="106" viewBox="0 0 106 106" fill="none" xmlns="http://www.w3.org/2000/svg">
<path d="M22.0833 53C26.336 49.8105 31.5964 48.2621 36.8988 48.6389C42.2012 49.0157 47.1898 51.2926 50.9486 55.0514C54.7074 58.8102 56.9843 63.7988 57.3611 69.1012C57.7379 74.4036 56.1895 79.664 53 83.9167M22.0833 53C19.3407 55.057 17.1146 57.7243 15.5814 60.7907C14.0482 63.8571 13.25 67.2383 13.25 70.6667C13.2486 72.8873 13.5821 75.0954 14.2393 77.2166C15.4407 81.1032 14.575 85.4316 13.8021 89.5126C13.7335 89.8614 13.7561 90.222 13.8677 90.5596C13.9792 90.8971 14.1759 91.2002 14.4387 91.4395C14.7016 91.6788 15.0217 91.8463 15.3682 91.9258C15.7147 92.0053 16.0759 91.994 16.4168 91.8932C20.1621 90.8685 23.8853 89.994 27.7102 91.3985C30.1518 92.2944 32.7325 92.7519 35.3333 92.75C38.7623 92.7534 42.1447 91.9567 45.2116 90.4233C48.2786 88.8898 50.9454 86.6619 53 83.9167M22.0833 53C22.0833 32.3079 34.7813 13.25 57.4167 13.25C63.083 13.249 68.6666 14.6108 73.6962 17.2206C78.7258 19.8303 83.054 23.6114 86.3157 28.245C89.5773 32.8785 91.6767 38.2285 92.4368 43.8436C93.1969 49.4588 92.5954 55.1744 90.683 60.5083C88.5807 66.3648 90.8464 74.2088 92.1714 80.6837C92.2486 81.0284 92.2328 81.3875 92.1255 81.7241C92.0182 82.0607 91.8233 82.3627 91.5607 82.5991C91.2982 82.8356 90.9776 82.9979 90.6316 83.0696C90.2857 83.1412 89.9269 83.1196 89.5921 83.0068C83.7974 81.196 76.9958 78.652 71.55 80.9487C65.6582 83.4308 59.466 83.9167 53 83.9167" stroke="#5A5A5A" stroke-width="6" stroke-linecap="round" stroke-linejoin="round"/>
<circle cx="30" cy="71" r="4" fill="#EA5C1C"/>
<circle cx="40" cy="71" r="4" fill="#EA5C1C"/>
</svg>
