<svg width="617" height="118" viewBox="0 0 617 118" fill="none" xmlns="http://www.w3.org/2000/svg">
<g clip-path="url(#clip0_116_3104)">
<path d="M266.934 117.038V85.8584H250.819V30.998H266.934V-0.181641H222.31V30.998H238.425V85.8584H205.415L177.278 -0.181641H146.989L108.485 117.038H141.561L172.244 23.6082L192.692 85.8584H172.244V117.038H266.934Z" fill="#898989"/>
<path d="M114.263 30.998V-0.181641H33.6376C21.9363 -0.181641 12.4527 9.26452 12.4527 20.9196V42.9292C12.4527 54.8968 22.1917 64.5973 34.2066 64.5973H78.8161C84.7105 64.5973 89.4888 69.3567 89.4888 75.2278C89.4888 75.7219 89.4523 76.2088 89.3866 76.6884C88.6717 81.8692 84.2144 85.8584 78.8161 85.8584H0.0583496V117.038H80.6909C92.3922 117.038 101.876 107.592 101.876 95.9367V73.9272C101.876 61.9596 92.1369 52.2591 80.1219 52.2591H35.5125C29.618 52.2591 24.8397 47.4997 24.8397 41.6285C24.8397 41.1344 24.8689 40.6476 24.9419 40.168C25.6568 34.9872 30.1141 30.998 35.5125 30.998H114.263Z" fill="#898989"/>
</g>
<path d="M597.175 76.957V64.5926L584.965 41.0439H592.507L600.1 56.4353H601.023L608.616 41.0439H616.158L603.947 64.5926V76.957H597.175Z" fill="#898989"/>
<path d="M568.14 77.6748C565.678 77.6748 563.437 77.1275 561.419 76.033C559.436 74.9043 557.845 73.2797 556.648 71.1591C555.485 69.0043 554.904 66.3878 554.904 63.3095V54.6904C554.904 50.073 556.204 46.533 558.803 44.0704C561.402 41.5736 564.925 40.3252 569.372 40.3252C573.784 40.3252 577.187 41.5052 579.581 43.8652C582.01 46.191 583.224 49.3548 583.224 53.3565V53.5617H576.554V53.1513C576.554 51.8858 576.281 50.74 575.733 49.7139C575.22 48.6878 574.434 47.884 573.373 47.3026C572.313 46.6869 570.979 46.3791 569.372 46.3791C566.977 46.3791 565.096 47.1145 563.728 48.5852C562.36 50.0559 561.676 52.0568 561.676 54.5878V63.4122C561.676 65.909 562.36 67.9269 563.728 69.4661C565.096 70.971 567.012 71.7235 569.474 71.7235C571.937 71.7235 573.733 71.0736 574.861 69.7739C575.99 68.4742 576.554 66.8324 576.554 64.8487V64.3356H568.038V58.5895H583.224V76.9565H576.965V73.5191H576.041C575.802 74.1006 575.408 74.7162 574.861 75.3661C574.348 76.0159 573.561 76.5632 572.501 77.0078C571.441 77.4524 569.987 77.6748 568.14 77.6748Z" fill="#898989"/>
<path d="M535.009 77.6748C530.494 77.6748 526.903 76.4435 524.235 73.9808C521.567 71.484 520.233 67.9269 520.233 63.3095V54.6904C520.233 50.073 521.567 46.533 524.235 44.0704C526.903 41.5736 530.494 40.3252 535.009 40.3252C539.524 40.3252 543.115 41.5736 545.783 44.0704C548.451 46.533 549.784 50.073 549.784 54.6904V63.3095C549.784 67.9269 548.451 71.484 545.783 73.9808C543.115 76.4435 539.524 77.6748 535.009 77.6748ZM535.009 71.6208C537.54 71.6208 539.506 70.8855 540.909 69.4148C542.311 67.944 543.012 65.9774 543.012 63.5148V54.4852C543.012 52.0226 542.311 50.0559 540.909 48.5852C539.506 47.1145 537.54 46.3791 535.009 46.3791C532.512 46.3791 530.545 47.1145 529.109 48.5852C527.706 50.0559 527.005 52.0226 527.005 54.4852V63.5148C527.005 65.9774 527.706 67.944 529.109 69.4148C530.545 70.8855 532.512 71.6208 535.009 71.6208Z" fill="#898989"/>
<path d="M494.449 76.957V41.0439H501.222V70.8005H517.639V76.957H494.449Z" fill="#898989"/>
<path d="M473.734 77.6748C469.219 77.6748 465.628 76.4435 462.96 73.9808C460.292 71.484 458.958 67.9269 458.958 63.3095V54.6904C458.958 50.073 460.292 46.533 462.96 44.0704C465.628 41.5736 469.219 40.3252 473.734 40.3252C478.249 40.3252 481.84 41.5736 484.508 44.0704C487.176 46.533 488.51 50.073 488.51 54.6904V63.3095C488.51 67.9269 487.176 71.484 484.508 73.9808C481.84 76.4435 478.249 77.6748 473.734 77.6748ZM473.734 71.6208C476.265 71.6208 478.232 70.8855 479.634 69.4148C481.036 67.944 481.738 65.9774 481.738 63.5148V54.4852C481.738 52.0226 481.036 50.0559 479.634 48.5852C478.232 47.1145 476.265 46.3791 473.734 46.3791C471.237 46.3791 469.271 47.1145 467.834 48.5852C466.432 50.0559 465.731 52.0226 465.731 54.4852V63.5148C465.731 65.9774 466.432 67.944 467.834 69.4148C469.271 70.8855 471.237 71.6208 473.734 71.6208Z" fill="#898989"/>
<path d="M425.409 76.957V41.0439H438.287L445.418 72.3396H446.341V41.0439H453.011V76.957H440.134L433.002 45.6613H432.079V76.957H425.409Z" fill="#898989"/>
<path d="M391.741 76.957V41.0439H398.513V55.8709H411.852V41.0439H418.624V76.957H411.852V62.0274H398.513V76.957H391.741Z" fill="#898989"/>
<path d="M372.371 77.6748C367.925 77.6748 364.402 76.4435 361.802 73.9808C359.203 71.484 357.903 67.9269 357.903 63.3095V54.6904C357.903 50.073 359.203 46.533 361.802 44.0704C364.402 41.5736 367.925 40.3252 372.371 40.3252C376.783 40.3252 380.186 41.5394 382.58 43.9678C385.009 46.362 386.223 49.6626 386.223 53.8695V54.1774H379.554V53.6643C379.554 51.5437 378.955 49.7994 377.758 48.4313C376.595 47.0632 374.799 46.3791 372.371 46.3791C369.977 46.3791 368.096 47.1145 366.727 48.5852C365.359 50.0559 364.675 52.0568 364.675 54.5878V63.4122C364.675 65.909 365.359 67.9098 366.727 69.4148C368.096 70.8855 369.977 71.6208 372.371 71.6208C374.799 71.6208 376.595 70.9368 377.758 69.5687C378.955 68.1664 379.554 66.422 379.554 64.3356V63.4122H386.223V64.1304C386.223 68.3374 385.009 71.655 382.58 74.0835C380.186 76.4777 376.783 77.6748 372.371 77.6748Z" fill="#898989"/>
<path d="M330.316 76.957V41.0439H353.403V47.2005H337.088V55.7683H351.966V61.9248H337.088V70.8005H353.71V76.957H330.316Z" fill="#898989"/>
<path d="M308.466 76.957V47.2005H298V41.0439H325.704V47.2005H315.238V76.957H308.466Z" fill="#898989"/>
<defs>
<clipPath id="clip0_116_3104">
<rect width="267" height="118" fill="white"/>
</clipPath>
</defs>
</svg>
